<mxfile host="app.diagrams.net" modified="2023-05-10T02:08:31.783Z" agent="Mozilla/5.0 (Windows NT 10.0; Win64; x64) AppleWebKit/537.36 (KHTML, like Gecko) Chrome/112.0.0.0 Safari/537.36" etag="63E_xuHc1IKctsS3K0OU" version="21.2.9" type="github">
  <diagram name="第 1 页" id="yH8Mplgc8ywlq-tgUoz1">
    <mxGraphModel dx="1562" dy="837" grid="1" gridSize="10" guides="1" tooltips="1" connect="1" arrows="1" fold="1" page="1" pageScale="1" pageWidth="827" pageHeight="1169" math="0" shadow="0">
      <root>
        <mxCell id="0" />
        <mxCell id="1" parent="0" />
        <mxCell id="Yr1W71jGQkC8yEHt8IvV-2" value="" style="rounded=0;whiteSpace=wrap;html=1;" vertex="1" parent="1">
          <mxGeometry x="190" y="100" width="330" height="550" as="geometry" />
        </mxCell>
        <mxCell id="Yr1W71jGQkC8yEHt8IvV-3" value="&lt;div data-darkreader-inline-bgcolor=&quot;&quot; data-darkreader-inline-color=&quot;&quot; style=&quot;background-color: rgb(31, 31, 31); font-family: Consolas, &amp;quot;Courier New&amp;quot;, monospace; line-height: 24px; --darkreader-inline-color:#dad4cc; --darkreader-inline-bgcolor:#0e1011;&quot;&gt;&lt;font style=&quot;font-size: 12px;&quot;&gt;Generate test input in the following java code:&lt;/font&gt;&lt;/div&gt;" style="text;html=1;align=center;verticalAlign=middle;whiteSpace=wrap;rounded=0;fontColor=#97D077;" vertex="1" parent="1">
          <mxGeometry x="197" y="100" width="316" height="30" as="geometry" />
        </mxCell>
        <mxCell id="Yr1W71jGQkC8yEHt8IvV-4" value="### CLASS_CONSTRUCTOR" style="text;html=1;strokeColor=none;fillColor=none;align=left;verticalAlign=middle;whiteSpace=wrap;rounded=0;fontColor=#FF9933;" vertex="1" parent="1">
          <mxGeometry x="200" y="150" width="190" height="30" as="geometry" />
        </mxCell>
        <mxCell id="Yr1W71jGQkC8yEHt8IvV-5" value="### generate test input" style="text;html=1;strokeColor=none;fillColor=none;align=left;verticalAlign=middle;whiteSpace=wrap;rounded=0;fontColor=#FF9933;" vertex="1" parent="1">
          <mxGeometry x="200" y="300" width="170" height="30" as="geometry" />
        </mxCell>
        <mxCell id="Yr1W71jGQkC8yEHt8IvV-6" value="### TEST_METHOD_NAME" style="text;html=1;strokeColor=none;fillColor=none;align=left;verticalAlign=middle;whiteSpace=wrap;rounded=0;fontColor=#FF9933;" vertex="1" parent="1">
          <mxGeometry x="200" y="255" width="160" height="30" as="geometry" />
        </mxCell>
        <mxCell id="Yr1W71jGQkC8yEHt8IvV-7" value="### METHOD_UNDER_TEST" style="text;html=1;strokeColor=none;fillColor=none;align=left;verticalAlign=middle;whiteSpace=wrap;rounded=0;fontColor=#FF9933;" vertex="1" parent="1">
          <mxGeometry x="200" y="210" width="170" height="30" as="geometry" />
        </mxCell>
        <mxCell id="Yr1W71jGQkC8yEHt8IvV-10" value="END_OF_DEMO" style="text;html=1;strokeColor=none;fillColor=none;align=left;verticalAlign=middle;whiteSpace=wrap;rounded=0;fontColor=#B5739D;fontStyle=1" vertex="1" parent="1">
          <mxGeometry x="210" y="360" width="150" height="30" as="geometry" />
        </mxCell>
      </root>
    </mxGraphModel>
  </diagram>
</mxfile>
